<?xml version="1.0" encoding="utf-8"?>
<!-- Generator: Adobe Illustrator 26.0.3, SVG Export Plug-In . SVG Version: 6.00 Build 0)  -->
<svg version="1.0" id="katman_1" xmlns="http://www.w3.org/2000/svg" xmlns:xlink="http://www.w3.org/1999/xlink" x="0px" y="0px"
	 viewBox="0 125 600 200" style="enable-background:new 0 125 600 200;" xml:space="preserve">
<path d="M137.4,287.3c4.2-0.6,8.2-1.3,12.1-2.3c3.8-0.9,7.5-2.1,10.9-3.4c3.4-1.3,6.4-2.8,9.1-4.3v-61.1h-51.4v29.5h18v8.5
	c-0.9,0.5-2.3,0.9-3.9,1.2c-1.7,0.3-3.3,0.4-4.9,0.4c-9,0-15.5-2.4-19.5-7.3c-4.1-4.9-6.1-11.2-6.1-19c0-3.9,0.7-7.4,2.1-10.6
	c1.4-3.2,3.2-5.9,5.4-8.1c2.2-2.3,4.8-4,7.7-5.2c2.9-1.2,5.9-1.8,8.9-1.8c4.6,0,8.5,0.8,11.7,2.4c3.2,1.6,5.9,3.8,8.2,6.6l22-26.4
	c-5-5-11.4-8.8-19.2-11.7c-7.8-2.8-16.1-4.3-24.9-4.3c-8.4,0-16.3,1.4-23.7,4.2c-7.4,2.8-13.8,6.8-19.3,11.9
	c-5.5,5.2-9.8,11.4-13,18.6c-3.2,7.3-4.7,15.4-4.7,24.3c0,9,1.6,17.1,4.7,24.3c3.2,7.3,7.5,13.5,13,18.6c5.5,5.1,12.1,9,19.6,11.8
	c7.5,2.7,15.7,4.1,24.6,4.1C129,288.2,133.2,287.9,137.4,287.3z M263.2,202.2h-36.5v43.9c0,3.7-0.8,6.5-2.3,8.4
	c-1.5,2-3.5,2.9-6,2.9c-2.7,0-4.7-0.8-6-2.5c-1.3-1.7-2-4.6-2-8.8v-43.9h-36.5v50.6c0,4.1,0.4,8.2,1.3,12.4
	c0.9,4.2,2.5,7.9,4.7,11.2c2.3,3.3,5.3,6,9.1,8.1c3.8,2.1,8.6,3.1,14.5,3.1c5.4,0,10.1-1.1,14.3-3.4c4.2-2.3,7.3-4.9,9.4-8h0.3v9.2
	h35.5C263.2,285.3,263.2,202.2,263.2,202.2z M267.5,285.3H304v-83.1h-36.5V285.3z M362.8,286.8c3.4-0.5,6.1-1.2,8-2.1v-25
	c-0.7,0.2-1.7,0.4-3,0.6c-1.3,0.2-2.5,0.3-3.6,0.3c-3.1,0-5.4-0.7-7.2-2.1c-1.7-1.4-2.6-4.1-2.6-8.1v-22.1h18v-26.1h-18v-22.7H319
	v22.7h-11.5v26.1h11.7V258c0,10.1,2.7,17.6,8.1,22.4c5.4,4.8,13.6,7.2,24.8,7.2C355.8,287.5,359.4,287.3,362.8,286.8z M473.8,285.3
	h36.5V245c0-4,1.4-7.4,4.3-10.1c2.8-2.7,6.6-4.1,11.4-4.1c1.2,0,2.4,0.1,3.9,0.2c1.4,0.2,2.7,0.4,3.9,0.7l2.8-31
	c-1.8-0.5-4.1-0.8-6.9-0.8c-4.7,0-8.9,1.1-12.4,3.3c-3.5,2.2-6.2,5-8,8.4h-0.3v-9.5h-35.1V285.3z"/>
<path d="M186.2,173.3h8.5v-9.8h-28.5v9.8h8.5V198h11.6V173.3z M194.5,188.1c1,2.3,2.3,4.2,4,5.8c1.7,1.6,3.7,2.8,6.1,3.7
	c2.3,0.9,4.9,1.3,7.6,1.3s5.3-0.4,7.6-1.3c2.3-0.9,4.4-2.1,6.1-3.7c1.7-1.6,3.1-3.5,4-5.8c1-2.3,1.5-4.8,1.5-7.6
	c0-2.8-0.5-5.3-1.5-7.5c-1-2.2-2.3-4.1-4-5.7c-1.7-1.6-3.8-2.8-6.1-3.6c-2.3-0.8-4.9-1.3-7.6-1.3s-5.3,0.4-7.6,1.3
	c-2.3,0.8-4.4,2-6.1,3.6c-1.7,1.6-3,3.5-4,5.7c-1,2.2-1.5,4.7-1.5,7.5C193,183.3,193.5,185.9,194.5,188.1z M205.8,177.5
	c0.3-0.9,0.8-1.7,1.4-2.3c0.6-0.6,1.3-1.1,2.2-1.5c0.8-0.4,1.8-0.5,2.7-0.5c1,0,1.9,0.2,2.7,0.5c0.8,0.4,1.6,0.9,2.2,1.5
	c0.6,0.6,1.1,1.4,1.4,2.3c0.3,0.9,0.5,1.9,0.5,3c0,1.1-0.2,2.2-0.5,3.1s-0.8,1.8-1.4,2.4c-0.6,0.7-1.3,1.2-2.2,1.6
	c-0.8,0.4-1.7,0.6-2.7,0.6c-1,0-1.9-0.2-2.7-0.6c-0.8-0.4-1.6-0.9-2.2-1.6c-0.6-0.7-1.1-1.5-1.4-2.4c-0.3-0.9-0.5-2-0.5-3.1
	C205.3,179.5,205.5,178.5,205.8,177.5z M249.7,173.3h8.5v-9.8h-28.5v9.8h8.5V198h11.6V173.3z M252.4,198h12.3l1.7-5.1h11l1.8,5.1
	h12.6l-13.4-34.5H266C266,163.5,252.4,198,252.4,198z M274.8,184.1h-5.6l2.8-8.5C272,175.6,274.8,184.1,274.8,184.1z M292,198h23.1
	v-10h-11.4v-24.5H292V198z M469.7,285.3V202h-34v8c-4.3-7.7-13.3-9.6-25-9.6c-12,0-21.8,3.1-29.5,11.3c-7.6,8.2-11.5,18.7-11.5,31.5
	c0,12.9,3.7,23.5,11.2,31.6c7.5,8.1,17.2,12.2,29.1,12.2c12.7,0,21.9-2.9,25.6-10.6v8.8H469.7z M437.6,243.2
	c0,5.6-1.6,10.1-4.7,13.7c-3.1,3.6-7.1,5.4-12,5.4c-4.8,0-8.7-1.8-11.9-5.5c-3.2-3.7-4.8-8.2-4.8-13.7c0-5.3,1.6-9.7,4.8-13.3
	c3.2-3.6,7.1-5.4,11.8-5.4c4.8,0,8.9,1.8,12,5.4C436,233.2,437.6,237.7,437.6,243.2z"/>
</svg>
